<?xml version="1.0" standalone="no"?>
<!DOCTYPE svg PUBLIC "-//W3C//DTD SVG 20010904//EN"
 "http://www.w3.org/TR/2001/REC-SVG-20010904/DTD/svg10.dtd">
<svg version="1.0" xmlns="http://www.w3.org/2000/svg"
 width="940.000000pt" height="401.000000pt" viewBox="0 0 940.000000 401.000000"
 preserveAspectRatio="xMidYMid meet">

<g transform="translate(0.000000,401.000000) scale(0.100000,-0.100000)"
fill="#000000" stroke="none">
<path d="M4535 2823 c-14 -36 -26 -143 -36 -328 -18 -333 -25 -639 -17 -680 5
-22 12 -64 15 -93 3 -32 11 -56 19 -59 8 -3 14 -20 14 -39 l0 -34 50 0 c46 0
50 2 57 28 4 15 7 87 7 160 l-2 133 30 30 c17 16 31 29 32 27 1 -2 21 -28 46
-58 50 -60 99 -107 158 -150 22 -15 59 -54 83 -86 51 -66 105 -108 128 -98 9
4 31 9 50 13 l34 6 -47 57 c-25 31 -78 105 -118 165 -39 59 -100 146 -135 192
-34 46 -63 89 -63 95 0 6 75 86 167 178 120 120 162 168 148 168 -11 0 -28 7
-39 15 -14 11 -24 12 -40 3 -11 -5 -113 -101 -225 -212 -193 -190 -205 -200
-212 -176 -4 14 -7 167 -5 340 2 173 1 321 -1 328 -3 6 -12 12 -20 12 -11 0
-14 6 -10 22 3 12 2 30 -4 40 -12 23 -55 24 -64 1z"/>
<path d="M6207 2779 c-25 -14 -47 -69 -47 -114 0 -46 23 -101 49 -114 28 -15
70 5 78 38 3 14 19 38 35 53 45 42 36 80 -29 126 -34 24 -58 27 -86 11z"/>
<path d="M6626 2513 c-14 -20 -23 -40 -20 -45 4 -5 -3 -12 -15 -15 -13 -3 -21
-14 -21 -27 0 -11 -1 -207 -1 -435 0 -347 2 -417 14 -429 12 -11 19 -11 36 -3
11 7 21 16 21 21 0 6 9 10 20 10 19 0 20 7 20 198 0 116 6 242 15 307 8 61 15
125 15 142 0 61 81 113 176 113 75 0 84 7 84 61 0 37 -4 49 -15 49 -8 0 -15 9
-15 19 0 41 -22 48 -128 43 -82 -4 -104 -2 -123 12 -32 22 -35 21 -63 -21z"/>
<path d="M1065 2507 c-45 -11 -129 -92 -221 -214 -65 -85 -81 -135 -90 -269
-11 -171 24 -269 136 -380 71 -70 129 -110 165 -115 89 -12 247 49 336 129
152 137 193 398 94 598 -83 169 -280 286 -420 251z"/>
<path d="M5515 2501 c-22 -10 -55 -34 -74 -52 -45 -44 -133 -179 -129 -197 5
-26 35 -38 59 -24 11 7 28 11 37 8 12 -4 23 5 37 31 12 22 40 50 69 68 42 25
62 31 127 34 75 3 79 2 117 -29 41 -32 92 -127 92 -169 0 -19 -6 -21 -53 -21
-30 0 -76 -7 -103 -15 -27 -8 -69 -15 -93 -15 -59 0 -215 -69 -265 -117 -60
-58 -69 -84 -64 -182 5 -109 21 -139 101 -193 104 -70 241 -96 327 -62 26 11
54 14 82 10 24 -3 48 -6 53 -7 8 -1 57 10 123 27 15 4 17 563 2 645 -22 114
-115 202 -267 253 -92 31 -124 32 -178 7z m345 -544 c0 -102 -20 -167 -66
-213 -48 -47 -89 -66 -159 -71 -81 -7 -137 10 -185 56 -38 36 -40 41 -40 98 0
51 4 64 25 85 27 27 195 83 284 94 30 3 71 12 90 20 20 7 39 13 44 13 4 1 7
-36 7 -82z"/>
<path d="M6262 2508 c-7 -7 -12 -20 -12 -30 0 -9 -6 -21 -13 -25 -29 -18 -40
-71 -32 -156 4 -45 7 -219 6 -387 -2 -343 -2 -341 65 -344 l39 -1 6 100 c4 55
7 192 8 305 1 113 5 233 10 267 11 70 -1 229 -18 262 -13 23 -41 27 -59 9z"/>
<path d="M1783 2497 c-33 -50 -33 -58 -33 -643 0 -384 3 -585 10 -589 6 -4 8
-10 5 -15 -12 -19 16 -52 37 -46 12 3 29 1 38 -4 9 -5 22 -5 29 -1 11 7 11 31
1 127 -16 161 -24 364 -15 364 4 0 30 -21 59 -46 73 -67 136 -94 216 -94 72 0
96 10 184 77 90 70 136 144 161 263 19 90 19 155 0 266 -28 162 -85 249 -202
309 -54 28 -65 30 -163 29 -58 -1 -147 -5 -197 -9 -61 -5 -93 -4 -93 3 0 15
-28 23 -37 9z m445 -154 c65 -48 96 -157 95 -335 0 -124 2 -120 -103 -227
l-71 -73 -49 4 c-26 3 -82 21 -123 40 -73 35 -75 37 -96 94 -60 159 -28 367
72 462 62 60 216 79 275 35z"/>
<path d="M3630 2490 c-15 -15 -20 -33 -20 -69 0 -33 -5 -53 -16 -62 -15 -12
-16 -32 -8 -194 5 -99 9 -268 9 -375 l0 -195 58 -3 57 -3 0 286 c0 184 4 303
12 332 15 60 87 137 143 152 89 24 190 6 239 -44 53 -53 66 -140 66 -452 0
-238 2 -266 20 -307 15 -37 24 -46 43 -46 49 0 49 6 45 372 -3 284 -7 352 -21
398 -9 30 -19 67 -22 83 -3 15 -12 27 -20 27 -8 0 -45 16 -84 36 -64 34 -77
37 -163 39 -135 3 -240 16 -263 31 -27 19 -52 17 -75 -6z"/>
<path d="M2949 2461 c-57 -6 -75 -14 -125 -51 -115 -84 -149 -148 -173 -325
-21 -150 -19 -169 29 -294 66 -170 211 -246 412 -214 95 15 150 38 209 91 57
51 84 107 70 145 -19 50 -64 29 -124 -57 -50 -73 -191 -106 -298 -71 -79 26
-142 93 -168 180 -12 37 -21 80 -21 96 l0 29 103 0 c102 -1 205 -9 392 -30
120 -13 134 -8 158 61 23 64 16 102 -39 209 -99 191 -213 253 -425 231z m205
-141 c78 -50 112 -91 132 -156 28 -92 43 -86 -198 -81 -195 4 -217 6 -265 27
-33 14 -53 29 -53 39 1 29 37 98 74 139 55 61 108 84 182 80 52 -3 71 -10 128
-48z"/>
<path d="M7370 2459 c-19 -5 -66 -14 -103 -18 -116 -15 -172 -70 -216 -215
-25 -81 -27 -160 -5 -236 8 -30 22 -79 30 -109 26 -91 55 -143 115 -202 75
-74 142 -101 254 -101 168 0 286 87 351 258 22 58 26 86 27 174 0 113 -10 166
-50 245 -37 75 -87 131 -152 168 -48 28 -70 35 -137 40 -43 3 -95 1 -114 -4z"/>
<path d="M8250 2459 c-207 -35 -299 -250 -165 -385 45 -44 100 -67 251 -103
44 -10 99 -28 122 -40 103 -53 94 -175 -18 -233 -67 -36 -178 -39 -239 -8 -44
22 -88 70 -97 106 -6 25 -19 28 -73 18 -36 -8 -38 -22 -12 -79 48 -103 148
-157 296 -157 195 0 317 94 318 247 1 128 -63 185 -269 239 -71 18 -144 40
-161 49 -48 25 -73 63 -73 111 0 92 75 150 195 150 46 0 81 -6 101 -17 39 -20
82 -70 90 -103 7 -26 19 -27 87 -7 21 6 17 28 -19 90 -56 98 -189 146 -334
122z"/>
</g>
</svg>
